# xmcd CD database file
#
# Track frame offsets:
#	150
#	40939
#	72131
#	97778
#	126113
#	170390
#	201469
#	235009
#	257730
#	287522
#	311791
#
# Disc length: 4447 seconds
#
# Revision: 1
# Processed by: cddbd v1.5.1PL0 Copyright (c) Steve Scherf et al.
# Submitted via: CDex 1.51
#
DISCID=95115d0b
DTITLE=Ike Quebec - Easy Living
DYEAR=1962
DGENRE=Jazz
TTITLE0=See See Rider
TTITLE1=Congo Lament
TTITLE2=Que's Pills
TTITLE3=B.G.'s Groove Two
TTITLE4=I.Q. Shuffle
TTITLE5=I've Got a Crush on You
TTITLE6=Nancy (With The Laughing Face)
TTITLE7=Easy Living
TTITLE8=Minor Impuls
TTITLE9=Like
TTITLE10=Born To Be Blue
EXTD=YEAR: 1962
EXTT0=
EXTT1=
EXTT2=
EXTT3=
EXTT4=
EXTT5=
EXTT6=
EXTT7=
EXTT8=
EXTT9=
EXTT10=
PLAYORDER=
